<svg xmlns="http://www.w3.org/2000/svg" width="900" height="400" viewBox="0 0 900 400" font-family="Helvetica" font-size="13">
<rect width="900" height="400" fill="#ffffff"/>
<text x="20" y="25" font-size="14" fill="#999">Reference: every ring a regular hexagon · BL=1.0 · target for SDG refiner</text>
<line x1="779.6" y1="109.6" x2="739.4" y2="86.4" stroke="#222" stroke-width="2"/>
<line x1="739.4" y1="86.4" x2="699.2" y2="109.6" stroke="#222" stroke-width="2"/>
<line x1="699.2" y1="109.6" x2="658.9" y2="86.4" stroke="#222" stroke-width="2"/>
<line x1="658.9" y1="86.4" x2="618.7" y2="109.6" stroke="#222" stroke-width="2"/>
<line x1="618.7" y1="109.6" x2="618.7" y2="156.1" stroke="#222" stroke-width="2"/>
<line x1="618.7" y1="156.1" x2="572.3" y2="179.3" stroke="#222" stroke-width="2"/>
<line x1="572.3" y1="179.3" x2="525.9" y2="156.1" stroke="#222" stroke-width="2"/>
<line x1="574.1" y1="175.7" x2="527.7" y2="152.5" stroke="#222" stroke-width="2"/>
<line x1="525.9" y1="156.1" x2="479.4" y2="156.1" stroke="#222" stroke-width="2"/>
<line x1="479.4" y1="156.1" x2="439.2" y2="132.9" stroke="#222" stroke-width="2"/>
<line x1="439.2" y1="132.9" x2="399.0" y2="156.1" stroke="#222" stroke-width="2"/>
<line x1="399.0" y1="156.1" x2="358.8" y2="132.9" stroke="#222" stroke-width="2"/>
<line x1="358.8" y1="132.9" x2="318.6" y2="156.1" stroke="#222" stroke-width="2"/>
<line x1="318.6" y1="156.1" x2="318.6" y2="202.5" stroke="#222" stroke-width="2"/>
<line x1="318.6" y1="202.5" x2="358.8" y2="225.7" stroke="#222" stroke-width="2"/>
<line x1="358.8" y1="225.7" x2="399.0" y2="202.5" stroke="#222" stroke-width="2"/>
<line x1="399.0" y1="156.1" x2="399.0" y2="202.5" stroke="#222" stroke-width="2"/>
<line x1="399.0" y1="202.5" x2="439.2" y2="225.7" stroke="#222" stroke-width="2"/>
<line x1="439.2" y1="225.7" x2="479.4" y2="202.5" stroke="#222" stroke-width="2"/>
<line x1="479.4" y1="156.1" x2="479.4" y2="202.5" stroke="#222" stroke-width="2"/>
<line x1="479.4" y1="202.5" x2="519.6" y2="225.7" stroke="#222" stroke-width="2"/>
<line x1="318.6" y1="202.5" x2="318.6" y2="225.7" stroke="#222" stroke-width="2"/>
<line x1="318.6" y1="225.7" x2="295.4" y2="185.5" stroke="#222" stroke-width="2"/>
<line x1="295.4" y1="185.5" x2="248.9" y2="185.5" stroke="#222" stroke-width="2"/>
<line x1="248.9" y1="185.5" x2="225.7" y2="225.7" stroke="#222" stroke-width="2"/>
<line x1="225.7" y1="225.7" x2="179.3" y2="202.5" stroke="#222" stroke-width="2"/>
<line x1="179.3" y1="202.5" x2="132.9" y2="225.7" stroke="#222" stroke-width="2"/>
<line x1="177.5" y1="198.9" x2="131.1" y2="222.2" stroke="#222" stroke-width="2"/>
<line x1="132.9" y1="225.7" x2="132.9" y2="225.7" stroke="#222" stroke-width="2"/>
<line x1="132.9" y1="225.7" x2="109.6" y2="265.9" stroke="#222" stroke-width="2"/>
<line x1="109.6" y1="265.9" x2="63.2" y2="265.9" stroke="#222" stroke-width="2"/>
<line x1="63.2" y1="265.9" x2="40.0" y2="225.7" stroke="#222" stroke-width="2"/>
<line x1="40.0" y1="225.7" x2="63.2" y2="185.5" stroke="#222" stroke-width="2"/>
<line x1="63.2" y1="185.5" x2="109.6" y2="185.5" stroke="#222" stroke-width="2"/>
<line x1="132.9" y1="225.7" x2="109.6" y2="185.5" stroke="#222" stroke-width="2"/>
<line x1="225.7" y1="225.7" x2="248.9" y2="265.9" stroke="#222" stroke-width="2"/>
<line x1="248.9" y1="265.9" x2="295.4" y2="265.9" stroke="#222" stroke-width="2"/>
<line x1="318.6" y1="225.7" x2="295.4" y2="265.9" stroke="#222" stroke-width="2"/>
<line x1="618.7" y1="156.1" x2="658.9" y2="179.3" stroke="#222" stroke-width="2"/>
<line x1="658.9" y1="179.3" x2="699.2" y2="156.1" stroke="#222" stroke-width="2"/>
<line x1="699.2" y1="109.6" x2="699.2" y2="156.1" stroke="#222" stroke-width="2"/>
<line x1="699.2" y1="156.1" x2="739.4" y2="179.3" stroke="#222" stroke-width="2"/>
<line x1="739.4" y1="179.3" x2="779.6" y2="156.1" stroke="#222" stroke-width="2"/>
<line x1="779.6" y1="109.6" x2="779.6" y2="156.1" stroke="#222" stroke-width="2"/>
<line x1="779.6" y1="156.1" x2="819.8" y2="179.3" stroke="#222" stroke-width="2"/>
<line x1="779.6" y1="109.6" x2="819.8" y2="86.4" stroke="#222" stroke-width="2"/>
<line x1="819.8" y1="86.4" x2="860.0" y2="109.6" stroke="#222" stroke-width="2"/>
<line x1="817.8" y1="89.9" x2="858.0" y2="113.1" stroke="#222" stroke-width="2"/>
<line x1="819.8" y1="86.4" x2="819.8" y2="40.0" stroke="#222" stroke-width="2"/>
<line x1="823.8" y1="86.4" x2="823.8" y2="40.0" stroke="#222" stroke-width="2"/>
<line x1="819.8" y1="86.4" x2="860.0" y2="63.2" stroke="#222" stroke-width="2"/>
<circle cx="572.3" cy="179.3" r="10" fill="#fff"/>
<text x="572.3" y="184.3" text-anchor="middle" fill="#3050d0" font-weight="bold">N</text>
<circle cx="525.9" cy="156.1" r="10" fill="#fff"/>
<text x="525.9" y="161.1" text-anchor="middle" fill="#3050d0" font-weight="bold">N</text>
<circle cx="519.6" cy="225.7" r="10" fill="#fff"/>
<text x="519.6" y="230.7" text-anchor="middle" fill="#3050d0" font-weight="bold">NH₂</text>
<circle cx="179.3" cy="202.5" r="10" fill="#fff"/>
<text x="179.3" y="207.5" text-anchor="middle" fill="#3050d0" font-weight="bold">N</text>
<circle cx="132.9" cy="225.7" r="10" fill="#fff"/>
<text x="132.9" y="230.7" text-anchor="middle" fill="#3050d0" font-weight="bold">N</text>
<circle cx="819.8" cy="179.3" r="10" fill="#fff"/>
<text x="819.8" y="184.3" text-anchor="middle" fill="#3050d0" font-weight="bold">NH₂</text>
<circle cx="819.8" cy="86.4" r="10" fill="#fff"/>
<text x="819.8" y="91.4" text-anchor="middle" fill="#c0a030" font-weight="bold">S</text>
<circle cx="860.0" cy="109.6" r="10" fill="#fff"/>
<text x="860.0" y="114.6" text-anchor="middle" fill="#d03030" font-weight="bold">O</text>
<circle cx="819.8" cy="40.0" r="10" fill="#fff"/>
<text x="819.8" y="45.0" text-anchor="middle" fill="#d03030" font-weight="bold">O</text>
<circle cx="860.0" cy="63.2" r="10" fill="#fff"/>
<text x="860.0" y="68.2" text-anchor="middle" fill="#d03030" font-weight="bold">OH</text>
</svg>